<svg width="91" height="20" viewBox="0 0 91 20" fill="none" xmlns="http://www.w3.org/2000/svg">
<path d="M2.96399 1.16999V12.688C2.96399 14.0573 3.31932 15.0887 4.02999 15.782C4.75799 16.4753 5.76332 16.822 7.04599 16.822C8.34599 16.822 9.35132 16.4753 10.062 15.782C10.79 15.0887 11.154 14.0573 11.154 12.688L11.154 1.16999L14.118 1.16999V12.636C14.118 14.1093 13.7973 15.3573 13.156 16.38C12.5147 17.4027 11.6567 18.1653 10.582 18.668C9.50732 19.1707 8.31999 19.422 7.01999 19.422C5.71999 19.422 4.53266 19.1707 3.45799 18.668C2.40066 18.1653 1.55999 17.4027 0.935989 16.38C0.311989 15.3573 -1.12057e-05 14.1093 -1.12057e-05 12.636L-1.12057e-05 1.16999H2.96399ZM20.9412 1.16999V19.24H17.9772V1.16999H20.9412ZM26.0286 19.422C25.4913 19.422 25.0406 19.24 24.6766 18.876C24.3126 18.512 24.1306 18.0613 24.1306 17.524C24.1306 16.9867 24.3126 16.536 24.6766 16.172C25.0406 15.808 25.4913 15.626 26.0286 15.626C26.5486 15.626 26.9906 15.808 27.3546 16.172C27.7186 16.536 27.9006 16.9867 27.9006 17.524C27.9006 18.0613 27.7186 18.512 27.3546 18.876C26.9906 19.24 26.5486 19.422 26.0286 19.422ZM30.1161 12.012C30.1161 10.5733 30.4108 9.29932 31.0001 8.18999C31.6068 7.08066 32.4214 6.22266 33.4441 5.61599C34.4841 4.99199 35.6368 4.67999 36.9021 4.67999C37.8381 4.67999 38.7568 4.88799 39.6581 5.30399C40.5768 5.70266 41.3048 6.23999 41.8421 6.91599V-1.00136e-05H44.8321V19.24H41.8421V17.082C41.3568 17.7753 40.6808 18.3473 39.8141 18.798C38.9648 19.2487 37.9854 19.474 36.8761 19.474C35.6281 19.474 34.4841 19.162 33.4441 18.538C32.4214 17.8967 31.6068 17.0127 31.0001 15.886C30.4108 14.742 30.1161 13.4507 30.1161 12.012ZM41.8421 12.064C41.8421 11.076 41.6341 10.218 41.2181 9.48999C40.8194 8.76199 40.2908 8.20732 39.6321 7.82599C38.9734 7.44466 38.2628 7.25399 37.5001 7.25399C36.7374 7.25399 36.0268 7.44466 35.3681 7.82599C34.7094 8.18999 34.1721 8.73599 33.7561 9.46399C33.3574 10.1747 33.1581 11.024 33.1581 12.012C33.1581 13 33.3574 13.8667 33.7561 14.612C34.1721 15.3573 34.7094 15.9293 35.3681 16.328C36.0441 16.7093 36.7548 16.9 37.5001 16.9C38.2628 16.9 38.9734 16.7093 39.6321 16.328C40.2908 15.9467 40.8194 15.392 41.2181 14.664C41.6341 13.9187 41.8421 13.052 41.8421 12.064ZM61.8552 11.726C61.8552 12.2633 61.8205 12.7487 61.7512 13.182H50.8052C50.8919 14.326 51.3165 15.2447 52.0792 15.938C52.8419 16.6313 53.7779 16.978 54.8872 16.978C56.4819 16.978 57.6085 16.3107 58.2672 14.976H61.4652C61.0319 16.2933 60.2432 17.3767 59.0992 18.226C57.9725 19.058 56.5685 19.474 54.8872 19.474C53.5179 19.474 52.2872 19.1707 51.1952 18.564C50.1205 17.94 49.2712 17.0733 48.6472 15.964C48.0405 14.8373 47.7372 13.5373 47.7372 12.064C47.7372 10.5907 48.0319 9.29932 48.6212 8.18999C49.2279 7.06332 50.0685 6.19666 51.1432 5.58999C52.2352 4.98332 53.4832 4.67999 54.8872 4.67999C56.2392 4.67999 57.4439 4.97466 58.5012 5.56399C59.5585 6.15332 60.3819 6.98532 60.9712 8.05999C61.5605 9.11732 61.8552 10.3393 61.8552 11.726ZM58.7612 10.79C58.7439 9.69799 58.3539 8.82266 57.5912 8.16399C56.8285 7.50532 55.8839 7.17599 54.7572 7.17599C53.7345 7.17599 52.8592 7.50532 52.1312 8.16399C51.4032 8.80532 50.9699 9.68066 50.8312 10.79H58.7612ZM69.9721 19.474C68.8454 19.474 67.8314 19.2747 66.9301 18.876C66.0461 18.46 65.3441 17.9053 64.8241 17.212C64.3041 16.5013 64.0267 15.7127 63.9921 14.846H67.0601C67.1121 15.4527 67.3981 15.964 67.9181 16.38C68.4554 16.7787 69.1227 16.978 69.9201 16.978C70.7521 16.978 71.3934 16.822 71.8441 16.51C72.3121 16.1807 72.5461 15.7647 72.5461 15.262C72.5461 14.7247 72.2861 14.326 71.7661 14.066C71.2634 13.806 70.4574 13.52 69.3481 13.208C68.2734 12.9133 67.3981 12.6273 66.7221 12.35C66.0461 12.0727 65.4567 11.648 64.9541 11.076C64.4687 10.504 64.2261 9.74999 64.2261 8.81399C64.2261 8.05132 64.4514 7.35799 64.9021 6.73399C65.3527 6.09266 65.9941 5.58999 66.8261 5.22599C67.6754 4.86199 68.6461 4.67999 69.7381 4.67999C71.3674 4.67999 72.6761 5.09599 73.6641 5.92799C74.6694 6.74266 75.2067 7.86066 75.2761 9.28199H72.3121C72.2601 8.64066 72.0001 8.12932 71.5321 7.74799C71.0641 7.36666 70.4314 7.17599 69.6341 7.17599C68.8541 7.17599 68.2561 7.32332 67.8401 7.61799C67.4241 7.91266 67.2161 8.30266 67.2161 8.78799C67.2161 9.16932 67.3547 9.48999 67.6321 9.74999C67.9094 10.01 68.2474 10.218 68.6461 10.374C69.0447 10.5127 69.6341 10.6947 70.4141 10.92C71.4541 11.1973 72.3034 11.4833 72.9621 11.778C73.6381 12.0553 74.2187 12.4713 74.7041 13.026C75.1894 13.5807 75.4407 14.3173 75.4581 15.236C75.4581 16.0507 75.2327 16.7787 74.7821 17.42C74.3314 18.0613 73.6901 18.564 72.8581 18.928C72.0434 19.292 71.0814 19.474 69.9721 19.474ZM84.3288 12.09L90.9328 19.24H86.9288L81.6248 13.078V19.24H78.6608V-1.00136e-05H81.6248V11.18L86.8248 4.91399H90.9328L84.3288 12.09Z" fill="#333333"/>
</svg>
